<svg width="132" height="150" viewBox="0 0 132 150" fill="none" xmlns="http://www.w3.org/2000/svg">
<path d="M67.313 76.0065L126 110.541" stroke="black" stroke-width="6.25" stroke-linecap="round"/>
<path d="M5 39.5413L63 73.5413" stroke="black" stroke-width="6.25" stroke-linecap="round"/>
<path d="M127.006 37.674L67.9886 3.40559C67.0667 2.87029 65.93 2.86443 65.0026 3.39018L4.52044 37.6793C3.58074 38.212 3 39.2088 3 40.289V109.781C3 110.868 3.5876 111.87 4.53607 112.4L65.0184 146.213C65.9377 146.727 67.0591 146.721 67.973 146.198L126.991 112.405C127.924 111.871 128.5 110.878 128.5 109.802V40.2684C128.5 39.1992 127.931 38.2109 127.006 37.674Z" stroke="black" stroke-width="6" stroke-linecap="round"/>
<path d="M126.481 40.4095L66.4961 74.6863C65.8295 75.0673 65 74.5859 65 73.8181V5.26444C65 4.49662 65.8295 4.01525 66.4961 4.3962L126.481 38.673C127.152 39.0569 127.152 40.0256 126.481 40.4095Z" fill="black" stroke="black" stroke-width="3" stroke-linecap="round"/>
<path d="M63.9927 75.4286L4.98421 110.167C4.3227 110.557 4.32848 111.516 4.99464 111.897L64.0031 145.684C64.6698 146.066 65.5 145.585 65.5 144.816V76.2904C65.5 75.5168 64.6593 75.0362 63.9927 75.4286Z" fill="black" stroke="black" stroke-width="3" stroke-linecap="round"/>
</svg>
