<svg width="256" height="256" viewBox="0 0 256 256" xmlns="http://www.w3.org/2000/svg">
<path d="M243.905 2.0751C246.671 -0.691699 251.158 -0.691695 253.925 2.0751C256.692 4.84191 256.692 9.32856 253.925 12.0954L138.02 128L253.925 243.905C256.692 246.671 256.692 251.158 253.925 253.925C251.158 256.692 246.671 256.692 243.905 253.925L128 138.02L12.0954 253.925C9.32856 256.692 4.84191 256.692 2.0751 253.925C-0.691695 251.158 -0.691699 246.671 2.0751 243.905L117.98 128L2.0751 12.0954C-0.691701 9.32856 -0.691701 4.84191 2.0751 2.0751C4.84191 -0.691701 9.32856 -0.691701 12.0954 2.0751L128 117.98L243.905 2.0751Z"/>
</svg>
