<svg width="232" height="256" viewBox="0 0 232 256" xmlns="http://www.w3.org/2000/svg">
<path d="M52.3701 33.1855C52.3701 22.59 43.7811 14.0002 33.1855 14C22.5899 14 14 22.5899 14 33.1855C14.0002 43.7811 22.59 52.3701 33.1855 52.3701V66.3701L32.3291 66.3594C14.6818 65.9125 0.45798 51.6892 0.0107422 34.042L0 33.1855C0 14.8579 14.8579 0 33.1855 0L34.042 0.0107422C51.9737 0.465194 66.3701 15.1443 66.3701 33.1855L66.3594 34.042C65.9049 51.9736 51.2266 66.3699 33.1855 66.3701V52.3701C43.7809 52.3699 52.3699 43.781 52.3701 33.1855Z"/>
<path d="M52.3701 222.815C52.3701 212.22 43.7811 203.63 33.1855 203.63C22.5899 203.63 14 212.219 14 222.815C14.0002 233.411 22.59 242 33.1855 242V256L32.3291 255.989C14.6818 255.542 0.45798 241.319 0.0107422 223.672L0 222.815C0 204.488 14.8579 189.63 33.1855 189.63L34.042 189.64C51.9737 190.095 66.3701 204.774 66.3701 222.815L66.3594 223.672C65.9049 241.603 51.2266 256 33.1855 256V242C43.7809 242 52.3699 233.411 52.3701 222.815Z"/>
<path d="M217.348 128C217.348 117.405 208.759 108.815 198.163 108.815C187.568 108.815 178.978 117.405 178.978 128C178.978 138.596 187.568 147.185 198.163 147.185V161.185L197.307 161.174C179.66 160.727 165.436 146.504 164.989 128.857L164.978 128C164.978 109.673 179.836 94.8149 198.163 94.8149L199.02 94.8257C216.951 95.2801 231.348 109.959 231.348 128L231.337 128.857C230.883 146.789 216.204 161.185 198.163 161.185V147.185C208.759 147.185 217.348 138.596 217.348 128Z"/>
<path d="M175.049 150.218L62.2197 213.744L55.3506 201.545L168.181 138.019L175.049 150.218ZM175.201 108.715L168.028 120.738L55.1982 53.4192L62.3721 41.3958L175.201 108.715Z"/>
</svg>
