<svg width="256" height="256" viewBox="0 0 256 256" xmlns="http://www.w3.org/2000/svg">
<path d="M203.477 109.026C203.477 56.8613 161.19 14.5733 109.026 14.5731C56.8612 14.5731 14.5731 56.8612 14.5731 109.026C14.5733 161.19 56.8613 203.477 109.026 203.477V218.05L107.616 218.042C48.5215 217.293 0.757174 169.529 0.0085389 110.435L0 109.026C0 48.8127 48.8127 0 109.026 0L110.435 0.0085389C169.998 0.763117 218.05 49.2832 218.05 109.026L218.042 110.435C217.287 169.998 168.768 218.05 109.026 218.05V203.477C161.19 203.477 203.477 161.19 203.477 109.026Z"/>
<path d="M182.513 181.957C185.37 179.123 189.984 179.142 192.818 182L253.888 243.583C256.721 246.441 256.701 251.054 253.844 253.888C250.987 256.721 246.373 256.701 243.54 253.844L182.47 192.262C179.637 189.404 179.656 184.791 182.513 181.957Z"/>
</svg>
