<svg width="256" height="155" viewBox="0 0 256 155" fill="none" xmlns="http://www.w3.org/2000/svg">
<path d="M128 0C204.652 0 247.931 63.4177 255.437 75.4226C256.188 76.623 256.188 78.1178 255.437 79.3182C247.931 91.3231 204.652 154.741 128 154.741V140.673C188.902 140.673 226.959 95.6258 239.829 77.3704C226.959 59.115 188.902 14.0673 128 14.0673C67.097 14.0673 29.0395 59.1153 16.1697 77.3704C29.0396 95.6255 67.097 140.673 128 140.673V154.741C53.7435 154.741 10.8064 95.2246 1.37135 80.5909L0.562792 79.3182C-0.187596 78.1178 -0.187599 76.623 0.562792 75.4226C8.06891 63.4177 51.3483 0 128 0Z" fill="black"/>
<path d="M164.173 77.3704C164.173 57.3925 147.978 41.1972 128 41.1972C108.022 41.1972 91.8267 57.3925 91.8267 77.3704C91.8267 97.3483 108.022 113.544 128 113.544V127.611C100.253 127.611 77.7594 105.117 77.7594 77.3704C77.7594 49.6233 100.253 27.1299 128 27.1299C155.747 27.1299 178.24 49.6233 178.24 77.3704C178.24 105.117 155.747 127.611 128 127.611V113.544C147.978 113.544 164.173 97.3483 164.173 77.3704Z" fill="black"/>
</svg>
