<svg width="256" height="256" viewBox="0 0 256 256" xmlns="http://www.w3.org/2000/svg">
<path d="M184.323 8.47734C191.348 2.17632 207.891 -5.13084 220.173 5.0837C232.455 15.2982 240.946 23.0453 250.451 34.8928C259.956 46.7403 256.264 59.8547 246.817 71.0027L245.1 73.0192C236.784 82.7375 232.526 86.9979 232.526 86.9979L84.2833 232.649L10.5782 255.618L10.2832 255.704C4.10525 257.393 -1.57889 251.566 0.400464 245.392L24.4537 170.366L168.336 24.7138C168.374 24.6714 176.23 15.9658 182.986 9.69759L184.323 8.47734ZM17.5507 238.535L65.664 223.541L33.1942 189.74L17.5507 238.535ZM39.3234 175.57L79.4978 217.391L217.227 82.0702L173.551 39.6923L39.3234 175.57ZM222.442 76.947C222.441 76.9487 222.44 76.9497 222.439 76.95L222.443 76.945L222.442 76.947ZM211.066 16.0262C209.097 14.389 206.656 13.812 203.126 14.5329C199.259 15.3226 195.623 17.465 193.832 19.0713C190.743 21.8426 187.053 25.5793 184.004 28.7777C183.799 28.9929 183.599 29.2064 183.402 29.4141L227.164 71.8764C229.349 69.4573 232.284 66.1313 235.952 61.8027L236.616 60.9984C239.819 57.0189 241.283 53.628 241.657 51.1154C241.977 48.96 241.663 46.6902 239.342 43.7979C231.234 33.6912 223.984 26.8646 213.258 17.858L211.066 16.0262Z"/>
</svg>
