<svg width="216" height="256" viewBox="0 0 216 256" xmlns="http://www.w3.org/2000/svg">
<path d="M20.8544 230.544V86.0583C20.8649 86.0574 21.1225 86.0574 27.4283 86.0574C33.9244 86.0574 34.0013 86.0573 34.0022 86.0583V230.544C34.0022 233.219 35.1941 236.419 37.3717 238.956C39.5274 241.466 42.1013 242.726 44.4904 242.726H170.246C172.991 242.726 176.414 241.299 179.275 238.78C182.28 236.134 183.262 233.575 183.262 232.458V86.0593C183.271 86.0583 183.507 86.0574 189.836 86.0574C196.41 86.0574 196.41 86.0582 196.41 86.0593V232.458C196.41 238.997 192.337 244.891 187.917 248.783C183.353 252.802 176.98 256 170.246 256H44.4904C37.4004 256 31.4422 252.316 27.4365 247.65C23.4529 243.01 20.8544 236.8 20.8544 230.544ZM82.1519 190.037V106.152C82.1519 102.486 85.0952 99.5149 88.7258 99.5148C92.3565 99.5148 95.2997 102.486 95.2997 106.152V190.037C95.2997 193.703 92.3565 196.674 88.7258 196.674C85.0952 196.674 82.1519 193.703 82.1519 190.037ZM122.28 190.037V105.194C122.281 101.529 125.224 98.5574 128.854 98.5574C132.485 98.5576 135.428 101.529 135.428 105.194V190.037C135.428 193.702 132.485 196.674 128.854 196.674C125.224 196.674 122.28 193.703 122.28 190.037ZM27.4283 79.4204C31.0588 79.4206 34.0022 82.392 34.0022 86.0574H20.8544C20.8544 82.3919 23.7976 79.4204 27.4283 79.4204ZM189.836 79.4204C193.467 79.4206 196.41 82.392 196.41 86.0574H183.262C183.262 82.3919 186.206 79.4204 189.836 79.4204ZM74.7618 40.1889H141.554V13.2741H74.7618V40.1889ZM154.702 40.1889H209.426C213.057 40.1889 216 43.1604 216 46.8259C216 50.4913 213.057 53.463 209.426 53.463H6.57391C2.94336 53.463 0.000195541 50.4913 0 46.8259C0 43.1604 2.94324 40.1889 6.57391 40.1889H61.6139V10.4296C61.6139 4.66952 66.239 2.7348e-05 71.9444 0H144.371C150.076 0 154.702 4.66952 154.702 10.4296V40.1889Z"/>
</svg>
