<svg width="29" height="256" viewBox="0 0 29 256" fill="black" xmlns="http://www.w3.org/2000/svg">
<path d="M28.4444 14.2222C28.4444 22.0769 22.0769 28.4444 14.2222 28.4444C6.36751 28.4444 0 22.0769 0 14.2222C0 6.36751 6.36751 0 14.2222 0C22.0769 0 28.4444 6.36751 28.4444 14.2222Z"/>
<path d="M28.4444 128C28.4444 135.855 22.0769 142.222 14.2222 142.222C6.36751 142.222 0 135.855 0 128C0 120.145 6.36751 113.778 14.2222 113.778C22.0769 113.778 28.4444 120.145 28.4444 128Z"/>
<path d="M28.4444 241.778C28.4444 249.632 22.0769 256 14.2222 256C6.36751 256 0 249.632 0 241.778C0 233.923 6.36751 227.556 14.2222 227.556C22.0769 227.556 28.4444 233.923 28.4444 241.778Z"/>
</svg>
