<svg width="256" height="256" viewBox="0 0 256 256" xmlns="http://www.w3.org/2000/svg">
<path d="M51.3424 248.915L51.3323 248.258C51.1175 241.46 47.5933 234.17 41.8092 228.386C35.8384 222.415 28.2624 218.852 21.2797 218.852C17.3668 218.852 14.1949 215.68 14.1948 211.768C14.1948 207.977 17.1718 204.882 20.9153 204.692L21.2797 204.683L21.9356 204.673C28.734 204.458 36.0248 200.934 41.8092 195.15C47.78 189.179 51.3424 181.603 51.3424 174.62C51.3424 170.707 54.5144 167.535 58.4273 167.535C62.3401 167.535 65.5121 170.707 65.5121 174.62C65.5121 181.603 69.0745 189.179 75.0454 195.15C81.0162 201.12 88.5922 204.683 95.5749 204.683C99.4877 204.683 102.66 207.855 102.66 211.768C102.66 215.68 99.4877 218.852 95.5749 218.852C88.5922 218.852 81.0162 222.415 75.0454 228.386C69.0745 234.357 65.5121 241.933 65.5121 248.915L65.5029 249.28C65.3132 253.023 62.2179 256 58.4273 256C54.6367 256 51.5413 253.023 51.3516 249.28L51.3424 248.915ZM58.4273 197.044C56.5054 199.992 54.2733 202.724 51.8286 205.169C49.3838 207.614 46.6512 209.846 43.704 211.768C46.6512 213.689 49.3839 215.922 51.8286 218.366C54.2731 220.811 56.5055 223.543 58.4273 226.49C60.3491 223.543 62.5814 220.811 65.026 218.366C67.4705 215.922 70.2026 213.689 73.1496 211.768C70.2027 209.846 67.4705 207.613 65.026 205.169C62.5813 202.724 60.3492 199.992 58.4273 197.044Z"/>
<path d="M146.733 224.435L146.724 223.428C146.393 202.277 135.663 180.639 119.09 164.065C102.253 147.229 80.1898 136.423 58.7196 136.423C54.8068 136.423 51.6348 133.25 51.6348 129.338C51.6348 125.547 54.6117 122.452 58.3552 122.262L58.7196 122.253L59.7261 122.244C80.8778 121.913 102.516 111.183 119.09 94.6098C135.926 77.7733 146.733 55.7101 146.733 34.2399C146.733 30.327 149.905 27.155 153.817 27.155C157.73 27.1551 160.902 30.3271 160.902 34.2399C160.902 55.7101 171.709 77.7733 188.545 94.6098C205.382 111.446 227.445 122.253 248.915 122.253C252.828 122.253 256 125.425 256 129.338C256 133.25 252.828 136.422 248.915 136.423C227.445 136.423 205.382 147.229 188.545 164.065C171.709 180.902 160.902 202.965 160.902 224.435L160.893 224.8C160.703 228.543 157.608 231.52 153.817 231.52C150.027 231.52 146.931 228.543 146.742 224.8L146.733 224.435ZM153.816 68.1808C148.192 81.6894 139.553 94.1848 129.109 104.629C118.665 115.074 106.169 123.713 92.6606 129.337C106.169 134.961 118.664 143.602 129.109 154.046C139.553 164.49 148.192 176.985 153.816 190.494C159.441 176.985 168.082 164.49 178.526 154.046C188.97 143.602 201.465 134.961 214.973 129.337C201.465 123.713 188.97 115.073 178.526 104.629C168.081 94.1846 159.441 81.6896 153.816 68.1808Z"/>
<path d="M37.1476 81.38L37.1374 80.7232C36.9227 73.9251 33.3985 66.6346 27.6144 60.8505C21.6436 54.8797 14.0675 51.3173 7.08487 51.3173C3.17202 51.3173 2.92124e-05 48.1453 0 44.2325C0 40.4418 2.97696 37.3465 6.72048 37.1568L7.08487 37.1476L7.74077 37.1374C14.5392 36.9229 21.83 33.3987 27.6144 27.6144C33.5852 21.6436 37.1476 14.0675 37.1476 7.08487C37.1476 3.172 40.3196 0 44.2325 0C48.1453 2.92133e-05 51.3173 3.17202 51.3173 7.08487C51.3173 14.0675 54.8797 21.6436 60.8505 27.6144C66.8213 33.5852 74.3974 37.1476 81.38 37.1476C85.2929 37.1476 88.4649 40.3196 88.4649 44.2325C88.4649 48.1453 85.2928 51.3173 81.38 51.3173C74.3974 51.3173 66.8214 54.8797 60.8505 60.8505C54.8797 66.8214 51.3173 74.3974 51.3173 81.38L51.3081 81.7444C51.1184 85.4879 48.023 88.4649 44.2325 88.4649C40.4418 88.4649 37.3465 85.4879 37.1568 81.7444L37.1476 81.38ZM44.2325 29.5092C42.3106 32.4564 40.0785 35.189 37.6337 37.6337C35.189 40.0785 32.4564 42.3106 29.5092 44.2325C32.4564 46.1543 35.189 48.3864 37.6337 50.8312C40.0783 53.2757 42.3107 56.0078 44.2325 58.9548C46.1543 56.0078 48.3866 53.2757 50.8312 50.8312C53.2757 48.3866 56.0078 46.1543 58.9548 44.2325C56.0078 42.3107 53.2757 40.0783 50.8312 37.6337C48.3864 35.189 46.1543 32.4564 44.2325 29.5092Z"/>
</svg>
